<svg xmlns="http://www.w3.org/2000/svg" width="2085" height="1092" style="shape-rendering:geometricPrecision;text-rendering:geometricPrecision;image-rendering:optimizeQuality;fill-rule:evenodd;clip-rule:evenodd"><path fill="#0084c8" d="M864.5 257.5a1697.091 1697.091 0 0 1 49 49 831.64 831.64 0 0 1-49 48 1630.981 1630.981 0 0 1-48-48l48-49Z" style="opacity:.962"/><path fill="#00afec" d="M621.5 409.5c49.056.609 87.889 20.609 116.5 60 28.659 47.506 30.326 95.839 5 145-27.161 43.678-66.661 66.344-118.5 68-59.87-2.993-102.037-31.659-126.5-86-18.741-53.906-9.408-102.239 28-145 26.504-26.17 58.337-40.17 95.5-42Z" style="opacity:.991"/><path fill="#164b9d" d="M968.5 496.5h31v100h-31v-100Z" style="opacity:.969"/><path fill="#164b9d" d="M1020.5 496.5c16.34-.167 32.67 0 49 .5a8910.752 8910.752 0 0 1 55.5 70.5c.5-23.664.67-47.331.5-71h31v100c-16 .167-32 0-48-.5l-55.5-69.5c-.5 23.331-.67 46.664-.5 70h-32v-100Z" style="opacity:.957"/><path fill="#164b9d" d="M1219.5 496.5c13.91-.323 27.75.01 41.5 1a8797.996 8797.996 0 0 1 53.5 98 153.663 153.663 0 0 1-35 0c-3.13-5.42-6.13-10.92-9-16.5a620.889 620.889 0 0 0-61 .5c-2.67 5.333-5.33 10.667-8 16a307.149 307.149 0 0 1-35 1 3573.466 3573.466 0 0 1 53-100Zm20 25a1656.34 1656.34 0 0 1 19 34.5c-12.01.833-24.01.666-36-.5 5.69-11.386 11.36-22.72 17-34ZM1324.5 496.5h104v25h-73v17h70v24h-70v34h-31v-100Z" style="opacity:.959"/><path fill="#164b9d" d="M968.5 648.5h6v32h-6v-32Z" style="opacity:.774"/><path fill="#164b9d" d="M987.5 648.5c9.672-.166 19.34 0 29 .5 4.38 1.652 6.04 4.819 5 9.5h-5c.21-1.644-.12-3.144-1-4.5-8.46-1.783-16.958-1.95-25.5-.5-2.475 1.875-2.975 4.209-1.5 7a32.444 32.444 0 0 0 6 1.5l23 1c1.99.574 3.49 1.741 4.5 3.5.67 3.333.67 6.667 0 10-1.01 1.759-2.51 2.926-4.5 3.5a240.38 240.38 0 0 1-31 0 6.978 6.978 0 0 1-3.5-2.5 32.462 32.462 0 0 1-.5-8h5c-.645 3.047.355 5.213 3 6.5 7.667.667 15.33.667 23 0 5.31-3.067 5.31-6.067 0-9l-25-1c-4.707-1.053-7.04-4.053-7-9 .436-4.07 2.436-6.904 6-8.5Z" style="opacity:.83"/><path fill="#164b9d" d="M1026.5 648.5h41v4h-18v28h-6v-28h-17v-4Z" style="opacity:.817"/><path fill="#164b9d" d="M1071.5 648.5h6v32h-6v-32Z" style="opacity:.774"/><path fill="#164b9d" d="M1081.5 648.5h41v4h-17v28h-6v-28h-18v-4Z" style="opacity:.818"/><path fill="#164b9d" d="M1126.5 648.5h6c-.3 8.721.03 17.388 1 26a4.473 4.473 0 0 0 2 1.5c8 .667 16 .667 24 0a9.39 9.39 0 0 0 2.5-1.5c.5-8.66.67-17.327.5-26h6c.45 10.105-.05 20.105-1.5 30a9.39 9.39 0 0 1-2.5 1.5c-11 .667-22 .667-33 0a6.97 6.97 0 0 1-3.5-2.5 152.623 152.623 0 0 1-1.5-29Z" style="opacity:.797"/><path fill="#164b9d" d="M1173.5 648.5h40v4h-17v28h-6v-28h-17v-4Z" style="opacity:.827"/><path fill="#164b9d" d="M1223.5 648.5c12.08-.438 24.08.062 36 1.5a7.014 7.014 0 0 1 2.5 3.5c.93 8.105.6 16.105-1 24a6.97 6.97 0 0 1-3.5 2.5c-12.43.959-24.76.626-37-1-1.39-1.171-2.23-2.671-2.5-4.5a99.754 99.754 0 0 1 0-20c1.02-2.85 2.85-4.85 5.5-6Zm4 4c9.41-.417 18.75.083 28 1.5 2.47 6.736 2.63 13.569.5 20.5a9.39 9.39 0 0 1-2.5 1.5c-9.38.806-18.71.64-28-.5a12.42 12.42 0 0 1-2.5-4 42.291 42.291 0 0 1 0-13c.6-2.754 2.1-4.754 4.5-6Z" style="opacity:.85"/><path fill="#164b9d" d="M1292.5 648.5a40.9 40.9 0 0 1 9 .5c9.83 8.5 19.67 17 29.5 25.5.5-8.66.67-17.327.5-26h6v32a40.9 40.9 0 0 1-9-.5c-9.83-8.5-19.67-17-29.5-25.5-.5 8.66-.67 17.327-.5 26h-6v-32Z" style="opacity:.779"/><path fill="#164b9d" d="M1361.5 648.5c2.75-.313 5.41.02 8 1a1464.299 1464.299 0 0 1 20 30.5c-4.88 1.68-8.21.18-10-4.5a131.265 131.265 0 0 0-28-.5 10.979 10.979 0 0 0-3 4.5c-2.33 1.333-4.67 1.333-7 0 6.69-10.351 13.36-20.684 20-31Zm3 6c4.23 4.247 7.9 9.081 11 14.5-6.69.831-13.36.664-20-.5 3.03-4.684 6.03-9.351 9-14Z" style="opacity:.759"/><path fill="#164b9d" d="M1392.5 648.5h39c.32 2.222-.34 4.056-2 5.5a731.38 731.38 0 0 0-29 22c10.33.5 20.66.666 31 .5v4h-40c-.24-1.967.09-3.801 1-5.5a731.38 731.38 0 0 1 29-22c-9.66-.5-19.33-.666-29-.5v-4Z" style="opacity:.825"/><path fill="#164b9d" d="M1437.5 648.5h6v32h-6v-32Z" style="opacity:.774"/><path fill="#164b9d" d="M1456.5 648.5c12.1-.459 24.1.041 36 1.5 3.37 4.213 4.7 9.047 4 14.5.28 4.57-.55 8.904-2.5 13a6.97 6.97 0 0 1-3.5 2.5c-12.1.958-24.1.625-36-1-1.99-1.319-3.15-3.152-3.5-5.5-.88-7.082-.55-14.082 1-21 1.4-1.57 2.9-2.904 4.5-4Zm4 4a138.4 138.4 0 0 1 28 1.5c.63.75 1.13 1.584 1.5 2.5.91 6.112.58 12.112-1 18a9.39 9.39 0 0 1-2.5 1.5l-13 .5a61.134 61.134 0 0 1-15-1.5l-1.5-1.5c-.67-6-.67-12 0-18a30.486 30.486 0 0 1 3.5-3Z" style="opacity:.819"/><path fill="#164b9d" d="M1503.5 648.5c4.04-.542 7.71.291 11 2.5 8.93 7.716 17.76 15.549 26.5 23.5.5-8.66.67-17.327.5-26h6v32a40.9 40.9 0 0 1-9-.5c-9.83-8.5-19.67-17-29.5-25.5-.5 8.66-.67 17.327-.5 26h-5v-32Z" style="opacity:.823"/><path fill="#164b9d" d="M1571.5 648.5c2.95-.277 5.78.056 8.5 1a704.777 704.777 0 0 0 19.5 30c-4.84 1.832-8.17.332-10-4.5-9.33-.667-18.67-.667-28 0-1.79 4.659-5.12 6.326-10 5a1688.613 1688.613 0 0 0 20-31.5Zm3 6c1-.086 1.83.248 2.5 1 2.83 4.333 5.67 8.667 8.5 13a67.229 67.229 0 0 1-20 .5c3.4-4.638 6.4-9.471 9-14.5Z" style="opacity:.761"/><path fill="#164b9d" d="M1603.5 648.5h6v28h27v4h-33v-32Z" style="opacity:.809"/><path fill="#164b9d" d="M1640.5 648.5h35v4h-29v9h28v5h-28v10h29v4h-35v-32Z" style="opacity:.805"/><path fill="#164b9d" d="M455.5 665.5a1138.802 1138.802 0 0 1 50 48.5L457 762.5a831.895 831.895 0 0 1-48.5-48.5 3222.268 3222.268 0 0 1 47-48.5Z" style="opacity:.965"/><path fill="#164b9d" d="M968.5 706.5c12.728-.42 25.394.08 38 1.5 2.17.833 3.67 2.333 4.5 4.5 2 6.667 2 13.333 0 20a11.477 11.477 0 0 1-3.5 4.5 268.963 268.963 0 0 1-39 1.5v-32Zm6 5c9.339-.166 18.673 0 28 .5 3.36 2.648 4.7 6.148 4 10.5a28.023 28.023 0 0 1-1.5 9 6.97 6.97 0 0 1-3.5 2.5c-8.994.5-17.994.666-27 .5v-23Z" style="opacity:.786"/><path fill="#164b9d" d="M1019.5 706.5h6v32h-6v-32Z" style="opacity:.774"/><path fill="#164b9d" d="M1073.5 706.5c2.62-.268 5.12.065 7.5 1a704.777 704.777 0 0 0 19.5 30c-4.84 1.832-8.17.332-10-4.5-9.35-.832-18.68-.665-28 .5-1.79 4.68-5.12 6.18-10 4.5a1708.932 1708.932 0 0 0 21-31.5Zm3 6c3.66 4.347 7 9.013 10 14a67.229 67.229 0 0 1-20 .5c3.55-4.714 6.89-9.547 10-14.5Z" style="opacity:.768"/><path fill="#164b9d" d="M1110.5 706.5c9.01-.166 18.01 0 27 .5 5.27.915 7.6 4.081 7 9.5h-6c.21-1.644-.12-3.144-1-4.5-8.68-1.962-17.34-1.962-26 0-2.95 3.55-2.28 6.216 2 8l25 1c6.9 2.721 8.73 7.554 5.5 14.5a6.97 6.97 0 0 1-3.5 2.5c-10.67 2-21.33 2-32 0-3.46-2.15-4.8-5.316-4-9.5h5c-.32 2.222.34 4.056 2 5.5 8.33.667 16.67.667 25 0 3.57-2.178 3.9-4.844 1-8l-21-1c-10.52.48-14.35-4.353-11.5-14.5 1.5-1.969 3.33-3.302 5.5-4Z" style="opacity:.777"/><path fill="#164b9d" d="M1148.5 706.5h41v5h-18v27h-5v-27h-18v-5Z" style="opacity:.793"/><path fill="#164b9d" d="M1193.5 706.5c12.39-.418 24.73.082 37 1.5.83.833 1.67 1.667 2.5 2.5.67 4 .67 8 0 12-.83.833-1.67 1.667-2.5 2.5a7.014 7.014 0 0 1 2.5 3.5c.5 3.317.67 6.65.5 10h-6c.17-3.35 0-6.683-.5-10a9.39 9.39 0 0 0-2.5-1.5c-8.33-.5-16.66-.666-25-.5v12h-6v-32Zm6 5c8.67-.166 17.34 0 26 .5 1.99 2.47 2.49 5.303 1.5 8.5a11.323 11.323 0 0 1-3.5 1.5c-7.99.5-15.99.666-24 .5v-11Z" style="opacity:.783"/><path fill="#164b9d" d="M1246.5 706.5a218.33 218.33 0 0 1 35 1.5 11.477 11.477 0 0 1 3.5 4.5c.9 7.746.56 15.413-1 23-2.04 2.104-4.54 3.271-7.5 3.5-9.33.667-18.67.667-28 0-3.52-.504-6.02-2.337-7.5-5.5-2-7.333-2-14.667 0-22 1.35-2.249 3.18-3.916 5.5-5Zm5 4c8.75-.41 17.42.09 26 1.5l1.5 1.5c.67 6.333.67 12.667 0 19a9.39 9.39 0 0 1-2.5 1.5c-9.33.667-18.67.667-28 0a7.014 7.014 0 0 1-2.5-3.5 63.933 63.933 0 0 1 0-16c1.5-1.969 3.33-3.302 5.5-4Z" style="opacity:.787"/><path fill="#164b9d" d="M1292.5 706.5h34v5h-28v9h27v4h-27v14h-6v-32Z" style="opacity:.78"/><path fill="#164b9d" d="M1333.5 706.5h5v32h-5v-32Z" style="opacity:.917"/><path fill="#164b9d" d="M1352.5 706.5c9.01-.166 18.01 0 27 .5 5.27.915 7.6 4.081 7 9.5h-6c.21-1.644-.12-3.144-1-4.5-8.68-1.962-17.34-1.962-26 0-3.01 3.631-2.34 6.298 2 8l25 1c5.88 1.57 8.04 5.403 6.5 11.5-.4 2.732-1.9 4.565-4.5 5.5-10.67 2-21.33 2-32 0-3.46-2.15-4.8-5.316-4-9.5h5c-.17 2.493.83 4.326 3 5.5 8.33.667 16.67.667 25 0 2.57-2.718 2.57-5.385 0-8l-20-1c-10.52 1.15-14.69-3.35-12.5-13.5 1.11-2.613 2.94-4.28 5.5-5Z" style="opacity:.776"/><path fill="#164b9d" d="M1394.5 706.5h6v32h-6v-32Z" style="opacity:.774"/><path fill="#164b9d" d="M1414.5 706.5c10.01-.166 20.01 0 30 .5 4.48 2.061 6.15 5.561 5 10.5h-5c.56-3.395-.78-5.562-4-6.5a84.57 84.57 0 0 0-25 1 9.246 9.246 0 0 0-1.5 2.5 72.142 72.142 0 0 0 0 17c.83.833 1.67 1.667 2.5 2.5 8.67.667 17.33.667 26 0 2.05-1.636 3.05-3.802 3-6.5h5c.16 2.357 0 4.69-.5 7-.5 1.833-1.67 3-3.5 3.5-11.33 2-22.67 2-34 0-2.31-1.637-3.81-3.804-4.5-6.5-1.13-7.545-.46-14.879 2-22 1.41-1.281 2.91-2.281 4.5-3Z" style="opacity:.783"/><path fill="#164b9d" d="M1473.5 706.5c3.19-.48 6.02.186 8.5 2a462.644 462.644 0 0 0 19.5 29.5c-2.33.667-4.67.667-7 0-1.33-1.667-2.67-3.333-4-5-9-.667-18-.667-27 0a10.979 10.979 0 0 0-3 4.5c-2.33 1.333-4.67 1.333-7 0 6.69-10.351 13.36-20.684 20-31Zm3 6c3.8 4.649 7.47 9.482 11 14.5-6.69.831-13.36.664-20-.5 3.03-4.684 6.03-9.351 9-14Z" style="opacity:.768"/></svg>